<?xml version="1.0" encoding="UTF-8" standalone="no"?>
<!-- Created with Inkscape (http://www.inkscape.org/) -->

<svg
   xmlns:dc="http://purl.org/dc/elements/1.1/"
   xmlns:cc="http://creativecommons.org/ns#"
   xmlns:rdf="http://www.w3.org/1999/02/22-rdf-syntax-ns#"
   xmlns:svg="http://www.w3.org/2000/svg"
   xmlns="http://www.w3.org/2000/svg"
   xmlns:sodipodi="http://sodipodi.sourceforge.net/DTD/sodipodi-0.dtd"
   xmlns:inkscape="http://www.inkscape.org/namespaces/inkscape"
   width="35.333427mm"
   height="35.956894mm"
   viewBox="0 0 35.333427 35.956894"
   version="1.1"
   id="svg860"
   inkscape:version="0.92.4 (5da689c313, 2019-01-14)"
   sodipodi:docname="logo.svg">
  <defs
     id="defs854" />
  <sodipodi:namedview
     id="base"
     pagecolor="#ffffff"
     bordercolor="#666666"
     borderopacity="1.0"
     inkscape:pageopacity="0.0"
     inkscape:pageshadow="2"
     inkscape:zoom="0.35"
     inkscape:cx="2048.2004"
     inkscape:cy="-663.47855"
     inkscape:document-units="mm"
     inkscape:current-layer="layer1"
     showgrid="false"
     fit-margin-top="0"
     fit-margin-left="0"
     fit-margin-right="0"
     fit-margin-bottom="0"
     inkscape:window-width="2560"
     inkscape:window-height="981"
     inkscape:window-x="0"
     inkscape:window-y="28"
     inkscape:window-maximized="1" />
  <metadata
     id="metadata857">
    <rdf:RDF>
      <cc:Work
         rdf:about="">
        <dc:format>image/svg+xml</dc:format>
        <dc:type
           rdf:resource="http://purl.org/dc/dcmitype/StillImage" />
        <dc:title></dc:title>
      </cc:Work>
    </rdf:RDF>
  </metadata>
  <g
     inkscape:label="Layer 1"
     inkscape:groupmode="layer"
     id="layer1"
     transform="translate(555.14886,62.668927)">
    <g
       id="g3075"
       transform="matrix(0.35880021,0,0,0.36064431,-718.03154,-153.51226)"
       style="fill:#008080"
       inkscape:export-filename="/tmp/watchdog_head.png"
       inkscape:export-xdpi="90"
       inkscape:export-ydpi="90">
      <g
         transform="translate(453.20284,251.74259)"
         id="g3047"
         style="fill:#008080">
        <path
           id="path3049"
           d="M 76.725,26.416 C 75.87,13.524 68.469,2.056 68.11,1.507 67.267,0.218 65.584,-0.222 64.219,0.486 58.843,3.271 53.97,11.806 51.21,17.454 h -9.04 c -0.67,0 -1.32,0.224 -1.849,0.637 l -8.333,6.518 -25.519,2.466 c -0.15,0.015 -0.3,0.041 -0.446,0.078 -3.098,0.782 -5.261,3.562 -5.261,6.761 0,1.525 0.483,2.972 1.399,4.185 0.037,0.049 0.075,0.097 0.115,0.144 l 0.371,0.434 c 0.025,0.03 0.052,0.059 0.078,0.088 l 12.623,14.688 c 0.291,0.339 0.654,0.608 1.062,0.789 l 8.667,3.832 c 0.382,0.169 0.795,0.256 1.213,0.256 h 11.878 l 8.606,15.32 v 16.953 c 0,0.695 0.241,1.369 0.684,1.906 l 5.142,6.249 c 0.542,0.659 1.34,1.056 2.192,1.091 0.042,10e-4 0.083,0.002 0.124,0.002 0.809,0 1.586,-0.327 2.151,-0.91 L 98.39,56.41 c 1.073,-1.104 1.136,-2.841 0.146,-4.02 z M 55.102,92.356 52.775,89.527 V 72.864 c 0,-0.515 -0.133,-1.021 -0.385,-1.469 L 45.05,58.33 h 6.44 c 1.657,0 3,-1.343 3,-3 0,-1.657 -1.343,-3 -3,-3 H 26.925 L 19.457,49.029 9.706,37.682 13.563,32.418 33.437,30.497 c 0.568,-0.055 1.109,-0.271 1.56,-0.623 l 8.208,-6.42 h 5.509 c -0.096,1.265 0.609,2.502 1.848,3.005 1.532,0.623 3.284,-0.116 3.908,-1.649 2.079,-5.112 6.319,-13.317 10.23,-17.229 2.496,4.662 6.917,14.45 5.976,23.864 -0.165,1.648 1.038,3.119 2.687,3.283 0.102,0.01 0.202,0.015 0.303,0.015 0.644,0 1.242,-0.216 1.737,-0.571 l 16.795,20.001 z"
           inkscape:connector-curvature="0"
           style="fill:#008080" />
        <circle
           id="circle3051"
           r="3.01"
           cy="31.311001"
           cx="44.088001"
           style="fill:#008080" />
      </g>
    </g>
    <rect
       style="color:#000000;display:inline;overflow:visible;visibility:visible;fill:none;stroke:#000000;stroke-width:1.41832578;stroke-linecap:round;stroke-miterlimit:4;stroke-dasharray:none;stroke-dashoffset:0;stroke-opacity:1;marker:none;enable-background:accumulate"
       id="rect3877"
       width="5.9306951"
       height="5.6765199"
       x="-542.58643"
       y="-54.210716"
       ry="0.55606723"
       inkscape:export-filename="/tmp/watchdog_head.png"
       inkscape:export-xdpi="90"
       inkscape:export-ydpi="90" />
  </g>
</svg>
