<?xml version="1.0" encoding="UTF-8" standalone="no"?>
<!-- Created with Inkscape (http://www.inkscape.org/) -->

<svg
   xmlns:dc="http://purl.org/dc/elements/1.1/"
   xmlns:cc="http://creativecommons.org/ns#"
   xmlns:rdf="http://www.w3.org/1999/02/22-rdf-syntax-ns#"
   xmlns:svg="http://www.w3.org/2000/svg"
   xmlns="http://www.w3.org/2000/svg"
   xmlns:sodipodi="http://sodipodi.sourceforge.net/DTD/sodipodi-0.dtd"
   xmlns:inkscape="http://www.inkscape.org/namespaces/inkscape"
   width="694.4071"
   height="135.90007"
   id="svg2"
   version="1.1"
   inkscape:version="0.92.4 (5da689c313, 2019-01-14)"
   sodipodi:docname="logo-w-text.svg">
  <defs
     id="defs4" />
  <sodipodi:namedview
     id="base"
     pagecolor="#ffffff"
     bordercolor="#666666"
     borderopacity="1.0"
     inkscape:pageopacity="0.0"
     inkscape:pageshadow="2"
     inkscape:zoom="0.95796175"
     inkscape:cx="76.145071"
     inkscape:cy="95.753013"
     inkscape:document-units="px"
     inkscape:current-layer="layer1"
     showgrid="false"
     inkscape:window-width="2560"
     inkscape:window-height="981"
     inkscape:window-x="0"
     inkscape:window-y="28"
     inkscape:window-maximized="1"
     fit-margin-top="0"
     fit-margin-left="0"
     fit-margin-right="0"
     fit-margin-bottom="0" />
  <metadata
     id="metadata7">
    <rdf:RDF>
      <cc:Work
         rdf:about="">
        <dc:format>image/svg+xml</dc:format>
        <dc:type
           rdf:resource="http://purl.org/dc/dcmitype/StillImage" />
        <dc:title></dc:title>
      </cc:Work>
    </rdf:RDF>
  </metadata>
  <g
     inkscape:label="Layer 1"
     inkscape:groupmode="layer"
     id="layer1"
     transform="translate(914.55991,-429.79265)">
    <g
       id="g1433">
      <g
         id="text2985"
         style="font-style:normal;font-weight:normal;font-size:40px;line-height:125%;font-family:Sans;letter-spacing:0px;word-spacing:0px;fill:#008080;fill-opacity:1;stroke:none">
        <path
           id="path3880"
           style="font-style:italic;font-variant:normal;font-stretch:normal;font-size:136px;font-family:Aleo;-inkscape-font-specification:Aleo;letter-spacing:-3.37999988px;fill:#000000"
           d="m -686.70059,464.02433 -0.68,5.712 c -0.136,1.36 0.408,2.312 1.768,2.584 4.624,0.952 7.208,1.36 7.888,1.496 l -15.776,36.992 c -1.224,2.992 -2.448,6.12001 -3.264,9.248 -0.544,-4.21599 -0.816,-7.344 -1.224,-9.248 l -8.704,-44.608 c -0.408,-1.632 -1.36,-2.448 -3.128,-2.448 h -5.304 c -1.768,0 -2.992,0.816 -3.672,2.448 l -19.992,44.608 c -1.904,4.352 -3.128,7.48 -3.808,9.248 0,-2.04 -0.272,-5.168 -0.68,-9.248 l -6.392,-36.992 c 4.216,-0.816 6.8,-1.36 7.616,-1.496 1.496,-0.272 2.312,-1.224 2.448,-2.584 l 0.68,-5.712 h -30.736 l -0.68,5.712 c -0.136,1.36 0.272,2.312 1.632,2.584 0.408,0.136 1.904,0.408 4.488,0.952 1.088,0.272 1.768,0.408 2.176,0.408 l 11.968,59.16 h 9.112 c 1.36,0 2.312,-0.816 2.992,-2.312 l 21.216,-46.648 c 0.544,-1.088 0.952,-2.04 1.224,-3.128 0.272,-0.952 0.68,-2.04 1.088,-3.264 0.136,0.816 0.136,1.768 0.272,2.992 0.136,1.088 0.272,2.312 0.544,3.4 l 9.52,46.648 c 0.272,1.496 0.952,2.312 2.176,2.312 h 9.52 l 26.384,-59.16 c 0.408,-0.136 1.496,-0.272 3.4,-0.68 1.904,-0.408 2.992,-0.544 3.536,-0.68 1.36,-0.272 2.312,-1.224 2.448,-2.584 l 0.68,-5.712 h -30.736"
           inkscape:connector-curvature="0" />
        <path
           id="path3882"
           style="font-style:italic;font-variant:normal;font-stretch:normal;font-size:136px;font-family:Aleo;-inkscape-font-specification:Aleo;letter-spacing:-3.37999988px;fill:#000000"
           d="m -617.91984,532.70433 h 6.256 11.016 v -5.848 c 0,-1.224 -0.816,-2.312 -2.04,-2.584 -1.088,-0.272 -7.344,-1.36 -7.752,-1.496 l 7.072,-56.712 c -4.89599,-2.176 -10.2,-3.128 -16.864,-3.128 -14.00798,0 -24.072,6.39201 -31.008,14.008 -6.93599,7.61599 -12.512,18.36002 -12.512,32.504 0,13.19199 5.03202,24.208 17.952,24.208 2.448,0 4.89601,-0.408 7.208,-1.36 8.16,-3.12799 13.60001,-10.06401 17.816,-17.544 l -1.224,13.736 c 0,2.72 1.22401,4.216 4.08,4.216 m -1.088,-36.312 c -2.31199,7.34399 -5.576,14.28001 -9.656,19.448 -2.85599,3.672 -7.072,7.752 -12.648,7.752 -6.93599,0 -10.472,-5.44001 -10.472,-16.32 0,-10.60799 3.94401,-18.768 8.84,-24.752 4.624,-5.57599 11.42401,-10.608 21.08,-10.608 h 2.856 c 0.952,0 2.04,0.272 2.992,1.088 l -2.992,23.392"
           inkscape:connector-curvature="0" />
        <path
           id="path3884"
           style="font-style:italic;font-variant:normal;font-stretch:normal;font-size:136px;font-family:Aleo;-inkscape-font-specification:Aleo;letter-spacing:-3.37999988px;fill:#000000"
           d="m -576.20521,533.92833 c 3.128,0 6.12,-0.544 9.248,-1.632 3.128,-1.088 5.848,-2.72 8.16,-4.624 l -2.856,-5.712 c -0.408,-0.816 -0.816,-1.224 -1.496,-1.224 -0.408,0 -0.816,0.272 -1.36,0.544 -0.544,0.272 -1.224,0.68 -1.904,1.088 -0.68,0.408 -1.632,0.816 -2.584,1.088 -0.952,0.272 -2.04,0.544 -3.264,0.544 -2.176,0 -3.944,-0.68 -5.168,-2.04 -1.224,-1.36 -1.768,-3.672 -1.36,-6.528 l 5.032,-41.344 h 19.72 l 1.088,-8.704 h -19.72 l 2.992,-23.8 h -6.12 c -0.816,0 -1.496,0.272 -2.04,0.68 -0.544,0.408 -0.952,0.952 -1.088,1.632 l -5.44,21.216 -11.424,1.496 -0.544,4.76 c -0.136,0.952 0,1.632 0.408,2.04 0.408,0.408 1.088,0.68 1.768,0.68 h 8.296 l -5.168,42.16 c -0.68,5.712 0.272,10.06401 2.856,13.056 2.584,2.992 6.52801,4.624 11.968,4.624"
           inkscape:connector-curvature="0" />
        <path
           id="path3886"
           style="font-style:italic;font-variant:normal;font-stretch:normal;font-size:136px;font-family:Aleo;-inkscape-font-specification:Aleo;letter-spacing:-3.37999988px;fill:#000000"
           d="m -503.25309,523.18433 -2.856,-4.488 c -0.408,-0.816 -1.088,-1.088 -2.04,-1.088 -0.952,0 -1.768,0.408 -2.72,1.088 -4.89599,3.808 -10.2,5.712 -15.912,5.712 -6.25599,0 -10.744,-2.312 -13.736,-6.8 -2.992,-4.62399 -4.08,-11.15201 -3.128,-19.312 0.952,-8.15999 3.53601,-14.416 7.616,-19.04 2.04,-2.312 4.352,-3.944 6.936,-5.032 2.584,-1.088 5.304,-1.768 7.752,-1.768 2.448,0 5.032,0.136 7.616,0.544 1.224,0.136 2.72,0.544 4.76,1.224 0,0.136 0,1.632 -0.136,4.488 -0.136,2.856 -0.272,4.624 -0.136,5.168 0.136,1.224 0.68,1.904 2.04,1.904 h 5.44 l 2.312,-17.952 c -7.88799,-3.39999 -14.552,-5.032 -19.856,-5.032 -10.19999,0 -18.632,3.40001 -25.296,10.064 -6.39199,6.392 -10.064,14.82401 -11.424,25.432 -1.36,11.01599 0.54401,19.72001 5.576,26.112 4.76,6.256 11.56001,9.384 20.4,9.384 11.15199,0 20.12801,-3.53601 26.792,-10.608"
           inkscape:connector-curvature="0" />
        <path
           id="path3888"
           style="font-style:italic;font-variant:normal;font-stretch:normal;font-size:136px;font-family:Aleo;-inkscape-font-specification:Aleo;letter-spacing:-3.37999988px;fill:#000000"
           d="m -428.64983,524.54433 c -0.816,-0.136 -3.4,-0.816 -7.616,-1.632 l 4.216,-33.864 c 0.952,-8.02399 -0.136,-14.416 -3.536,-19.04 -3.39999,-4.75999 -8.84001,-7.072 -16.32,-7.072 -8.29599,0 -16.04801,3.40001 -23.392,10.336 l 4.896,-40.528 h -23.256 l -0.68,5.712 c -0.136,1.36 0.408,2.312 1.768,2.584 0.816,0.136 3.67201,0.816 8.84,1.632 l -9.384,76.84 -1.632,13.328 h 12.104 l 2.856,-23.8 3.4,-26.928 c 6.528,-6.39199 13.05601,-9.52 19.72,-9.52 9.65599,0 13.872,5.44001 12.512,16.456 l -5.304,43.792 h 21.896 l 0.68,-5.848 c 0.136,-1.36 -0.408,-2.176 -1.768,-2.448"
           inkscape:connector-curvature="0" />
        <path
           id="path3890"
           style="font-style:italic;font-variant:normal;font-stretch:normal;font-size:136px;font-family:Aleo;-inkscape-font-specification:Aleo;letter-spacing:-3.37999988px;fill:#008080"
           d="m -389.85921,462.66433 c -9.11199,0 -16.864,3.40001 -23.12,10.336 -6.11999,6.664 -9.928,15.09601 -11.152,25.568 -1.36,11.28799 1e-5,20.12801 3.944,26.248 3.808,5.984 9.79201,8.976 17.816,8.976 8.97599,0 17.13601,-3.94401 24.616,-11.832 v 8.432 c 0.272,1.632 1.224,2.448 2.992,2.448 h 17 l 0.68,-5.848 c 0.136,-1.36 -0.272,-2.312 -1.632,-2.584 -0.816,-0.136 -3.4,-0.68 -7.616,-1.496 l 11.152,-90.304 h -23.256 l -0.816,5.848 c -0.136,1.36 0.408,2.312 1.768,2.584 1.36,0.272 4.48801,0.816 8.976,1.496 l -3.536,28.288 c -4.21599,-5.43999 -10.20001,-8.16 -17.816,-8.16 m -7.208,61.336 c -2.85599,0 -5.304,-0.544 -7.344,-1.496 -6.39199,-2.99199 -8.84,-10.88001 -7.208,-23.936 1.088,-8.43199 3.67201,-14.96 7.616,-19.584 3.944,-4.62399 9.38401,-6.8 15.912,-6.8 6.528,0 11.69601,2.72001 14.96,8.16 l -4.216,33.184 c -6.11999,6.936 -12.512,10.472 -19.72,10.472"
           inkscape:connector-curvature="0" />
        <path
           id="path3892"
           style="font-style:italic;font-variant:normal;font-stretch:normal;font-size:136px;font-family:Aleo;-inkscape-font-specification:Aleo;letter-spacing:-3.37999988px;fill:#008080"
           d="m -316.13784,462.93633 c -5.03199,0 -9.656,0.816 -13.872,2.448 -4.21599,1.632 -8.024,3.94401 -11.288,7.072 -3.26399,3.128 -5.848,6.93601 -7.888,11.288 -2.04,4.352 -3.536,9.11201 -4.216,14.552 -0.68,5.44 -0.408,10.33601 0.544,14.688 0.952,4.352 2.856,8.02401 5.304,11.152 2.448,3.128 5.57601,5.576 9.384,7.208 3.808,1.632 8.29601,2.448 13.328,2.448 5.032,0 9.79201,-0.816 14.008,-2.448 4.216,-1.632 7.88801,-4.08 11.152,-7.208 3.264,-3.12799 5.848,-6.8 7.888,-11.152 2.04,-4.35199 3.4,-9.248 4.08,-14.688 0.68,-5.43999 0.544,-10.2 -0.408,-14.552 -0.952,-4.35199 -2.72,-8.16 -5.168,-11.288 -2.448,-3.12799 -5.712,-5.44 -9.52,-7.072 -3.80799,-1.632 -8.296,-2.448 -13.328,-2.448 m -7.48,61.336 c -3.39999,0 -6.256,-0.544 -8.704,-1.768 -2.448,-1.224 -4.352,-2.856 -5.848,-5.032 -1.496,-2.176 -2.312,-4.76 -2.72,-8.024 -0.408,-3.26399 -0.544,-6.936 0,-11.016 0.544,-4.07999 1.496,-7.752 2.72,-11.016 1.224,-3.26399 2.72,-5.984 4.76,-8.16 2.04,-2.176 4.21601,-3.944 6.936,-5.168 2.72,-1.224 5.84801,-1.768 9.248,-1.768 6.8,0 11.56001,2.31201 14.416,6.936 2.856,4.624 3.536,11.01601 2.584,19.176 -0.952,8.15999 -3.4,14.41601 -7.344,19.04 -3.94399,4.624 -9.248,6.8 -16.048,6.8"
           inkscape:connector-curvature="0" />
        <path
           id="path3894"
           style="font-style:italic;font-variant:normal;font-stretch:normal;font-size:136px;font-family:Aleo;-inkscape-font-specification:Aleo;letter-spacing:-3.37999988px;fill:#008080"
           d="m -230.76084,483.20033 c 0,-1.496 0,-2.856 -0.272,-4.08 -0.272,-1.36 -0.544,-2.448 -0.952,-3.672 l 8.568,-1.496 c 0.816,-0.136 1.496,-0.544 1.904,-1.224 0.408,-0.68 0.68,-1.224 0.816,-2.04 l 0.544,-4.08 h -18.768 c -3.672,-2.312 -7.88801,-3.536 -12.92,-3.536 -4.488,0 -8.43201,0.816 -11.832,2.312 -3.4,1.496 -6.256,3.536 -8.568,5.984 -2.312,2.448 -3.944,5.30401 -5.168,8.432 -1.224,3.128 -1.768,6.25601 -1.768,9.52 0,3.4 0.544,6.256 1.496,8.84 0.952,2.584 2.312,4.624 4.08,6.256 1.768,1.632 3.672,2.992 5.984,3.808 2.312,0.816 4.76,1.36 7.344,1.36 2.71999,0 5.032,-0.272 7.208,-0.952 2.176,-0.68 4.08,-1.496 5.848,-2.72 -0.952,1.904 -1.768,3.536 -2.176,5.032 -0.408,1.496 -0.68,2.992 -0.68,4.352 0,1.088 0.136,2.04 0.408,2.992 0.272,0.952 0.544,1.904 0.952,2.72 -1.632,-0.272 -3.128,-0.408 -4.76,-0.544 -1.632,-0.136 -3.264,-0.272 -4.896,-0.272 -4.08,0 -7.88801,0.408 -11.832,1.224 -3.944,0.816 -7.34401,2.04 -10.336,3.672 -2.992,1.632 -5.44,3.808 -7.344,6.392 -1.904,2.584 -2.856,5.71201 -2.856,9.248 0,2.584 0.68,4.896 1.904,6.936 1.224,2.176 2.992,3.944 5.304,5.44 2.312,1.496 5.032,2.584 8.296,3.4 3.26399,0.816 6.8,1.224 10.744,1.224 4.89599,0 9.52,-0.68 13.464,-1.904 3.94399,-1.224 7.344,-3.128 10.064,-5.304 2.71999,-2.176 4.896,-4.76 6.392,-7.616 1.496,-2.856 2.176,-5.848 2.176,-9.112 0,-2.584 -0.408,-4.896 -1.36,-6.8 -0.952,-1.904 -1.904,-3.808 -2.992,-5.44 -1.088,-1.632 -2.176,-3.264 -3.128,-4.76 -0.952,-1.496 -1.36,-3.264 -1.36,-5.168 0,-1.632 0.272,-3.264 0.816,-4.624 0.544,-1.36 1.088,-2.856 1.904,-4.216 0.816,-1.36 1.496,-2.72 2.448,-4.08 0.952,-1.36 1.768,-2.856 2.584,-4.352 0.816,-1.496 1.36,-3.264 1.904,-5.032 0.544,-1.768 0.816,-3.808 0.816,-6.12 m -12.648,51.544 c 0,1.904 -0.408,3.808 -1.36,5.576 -0.952,1.768 -2.312,3.264 -4.08,4.624 -1.768,1.36 -3.944,2.312 -6.392,3.128 -2.448,0.816 -5.16801,1.224 -8.16,1.224 -5.032,0 -8.97601,-0.816 -11.696,-2.584 -2.72,-1.768 -4.08,-4.216 -4.08,-7.48 0,-1.496 0.408,-3.128 1.224,-4.488 0.816,-1.496 2.176,-2.72 3.944,-3.808 1.768,-1.088 4.08,-1.904 6.8,-2.584 2.71999,-0.68 5.984,-0.952 9.656,-0.952 1.904,0 3.944,0.136 6.12,0.272 2.176,0.136 4.352,0.408 6.8,0.816 0.408,0.952 0.68,2.04 0.952,2.992 0.272,1.088 0.272,2.04 0.272,3.264 m -13.6,-32.776 c -3.536,0 -6.12,-0.952 -8.16,-3.128 -1.904,-2.176 -2.992,-5.304 -2.992,-9.384 0,-2.312 0.272,-4.488 0.952,-6.664 0.68,-2.176 1.632,-4.08 2.856,-5.712 1.224,-1.632 2.856,-2.992 4.76,-3.944 1.904,-0.952 3.944,-1.496 6.392,-1.496 3.53599,0 6.392,0.952 8.432,2.992 2.04,2.04 2.992,5.16801 2.992,9.112 0,2.176 -0.408,4.352 -1.088,6.528 -0.68,2.176 -1.632,4.08 -2.856,5.848 -1.224,1.768 -2.856,3.128 -4.76,4.216 -1.904,1.088 -4.08,1.632 -6.528,1.632"
           inkscape:connector-curvature="0" />
      </g>
      <g
         style="fill:#008080"
         transform="matrix(1.3560953,0,0,1.3630651,-1530.1795,86.447778)"
         id="g3075">
        <g
           style="fill:#008080"
           id="g3047"
           transform="translate(453.20284,251.74259)">
          <path
             style="fill:#008080"
             inkscape:connector-curvature="0"
             d="M 76.725,26.416 C 75.87,13.524 68.469,2.056 68.11,1.507 67.267,0.218 65.584,-0.222 64.219,0.486 58.843,3.271 53.97,11.806 51.21,17.454 h -9.04 c -0.67,0 -1.32,0.224 -1.849,0.637 l -8.333,6.518 -25.519,2.466 c -0.15,0.015 -0.3,0.041 -0.446,0.078 -3.098,0.782 -5.261,3.562 -5.261,6.761 0,1.525 0.483,2.972 1.399,4.185 0.037,0.049 0.075,0.097 0.115,0.144 l 0.371,0.434 c 0.025,0.03 0.052,0.059 0.078,0.088 l 12.623,14.688 c 0.291,0.339 0.654,0.608 1.062,0.789 l 8.667,3.832 c 0.382,0.169 0.795,0.256 1.213,0.256 h 11.878 l 8.606,15.32 v 16.953 c 0,0.695 0.241,1.369 0.684,1.906 l 5.142,6.249 c 0.542,0.659 1.34,1.056 2.192,1.091 0.042,10e-4 0.083,0.002 0.124,0.002 0.809,0 1.586,-0.327 2.151,-0.91 L 98.39,56.41 c 1.073,-1.104 1.136,-2.841 0.146,-4.02 z M 55.102,92.356 52.775,89.527 V 72.864 c 0,-0.515 -0.133,-1.021 -0.385,-1.469 L 45.05,58.33 h 6.44 c 1.657,0 3,-1.343 3,-3 0,-1.657 -1.343,-3 -3,-3 H 26.925 L 19.457,49.029 9.706,37.682 13.563,32.418 33.437,30.497 c 0.568,-0.055 1.109,-0.271 1.56,-0.623 l 8.208,-6.42 h 5.509 c -0.096,1.265 0.609,2.502 1.848,3.005 1.532,0.623 3.284,-0.116 3.908,-1.649 2.079,-5.112 6.319,-13.317 10.23,-17.229 2.496,4.662 6.917,14.45 5.976,23.864 -0.165,1.648 1.038,3.119 2.687,3.283 0.102,0.01 0.202,0.015 0.303,0.015 0.644,0 1.242,-0.216 1.737,-0.571 l 16.795,20.001 z"
             id="path3049" />
          <circle
             style="fill:#008080"
             cx="44.088001"
             cy="31.311001"
             r="3.01"
             id="circle3051" />
        </g>
      </g>
      <rect
         ry="2.1016715"
         y="461.76068"
         x="-867.0799"
         height="21.454563"
         width="22.415226"
         id="rect3877"
         style="color:#000000;display:inline;overflow:visible;visibility:visible;fill:none;stroke:#000000;stroke-width:5.36060143;stroke-linecap:round;stroke-miterlimit:4;stroke-dasharray:none;stroke-dashoffset:0;stroke-opacity:1;marker:none;enable-background:accumulate" />
    </g>
  </g>
</svg>
